<svg width="80" height="80" viewBox="0 0 80 80" fill="none" xmlns="http://www.w3.org/2000/svg">
<circle cx="40" cy="40" r="40" fill="#FFA03C"/>
<path d="M22.1896 48.3666V38.2281L18 42.4233V36.8297L24.9828 29.4881L31.9655 36.8297V42.4233L27.7759 38.2281L27.7758 48.3666H22.1896ZM41.7413 60.9523L39.1438 60.8116L40.3448 42.773C39.4138 43.2391 37.5517 46.9681 37.5517 46.9681C37.5517 46.9681 36.6207 48.3665 36.1552 53.9601L31.9655 52.5618L33.3621 45.5698C33.3621 45.5698 36.1552 35.7809 41.7413 35.781H52.9136C58.4999 35.7809 61.293 45.5698 61.293 45.5698L62 49.5813C60.9905 51.2311 59.7857 52.7481 58.4177 54.1C57.9332 49.1494 57.1035 46.9681 57.1035 46.9681C57.1035 46.9681 55.2414 43.2391 54.3103 42.7729L54.6667 58.0254C54.6667 58.0254 53.6889 61.4401 41.7413 60.9523ZM47.3275 19C51.184 19 54.3103 22.1304 54.3103 25.992C54.3103 29.8536 51.184 32.9841 47.3275 32.9841C43.4711 32.9841 40.3448 29.8536 40.3448 25.992C40.3448 22.1304 43.4711 19 47.3275 19Z" fill="white"/>
</svg>
