<svg width="80" height="80" viewBox="0 0 80 80" fill="none" xmlns="http://www.w3.org/2000/svg">
<circle cx="40" cy="40" r="40" fill="#FFA03C"/>
<path d="M15.4604 47.8247C16.5859 49.0785 17.833 50.244 19.1875 51.308C19.1833 51.2035 19.1667 51.1045 19.1667 51C19.1748 49.1393 19.8225 47.3244 21.0247 45.7937C22.2268 44.263 23.9271 43.0882 25.9021 42.4237C26.2653 42.3027 26.5829 42.0948 26.819 41.8235C27.0551 41.5521 27.2003 41.2281 27.2382 40.8879C27.2762 40.5478 27.2053 40.2051 27.0336 39.8986C26.8619 39.592 26.5963 39.3338 26.2667 39.153C25.366 38.6633 24.6232 37.9783 24.1096 37.1636C23.596 36.3488 23.3287 35.4317 23.3333 34.5C23.3288 33.4319 23.6792 32.3859 24.3414 31.4908C25.0036 30.5957 25.9487 29.8904 27.0605 29.4618C28.1722 29.0333 29.4021 28.9 30.5988 29.0786C31.7955 29.2571 32.9067 29.7396 33.7958 30.4667C35.0982 29.8088 36.5255 29.3647 38.0083 29.1558C37.1956 28.1567 36.1626 27.3117 34.971 26.6712C33.7793 26.0307 32.4534 25.6079 31.0721 25.4279C29.6908 25.2479 28.2825 25.3145 26.9311 25.6235C25.5796 25.9326 24.3127 26.4779 23.2058 27.227C22.0989 27.976 21.1747 28.9135 20.4882 29.9835C19.8017 31.0535 19.367 32.2342 19.2099 33.4551C19.0529 34.6761 19.1768 35.9124 19.5741 37.0904C19.9715 38.2683 20.6343 39.3639 21.5229 40.3117C18.5246 42.078 16.3673 44.7514 15.4604 47.8247ZM64.5396 47.8247C63.6336 44.7501 61.4762 42.0753 58.4771 40.308C59.3628 39.3599 60.0229 38.2648 60.4181 37.0877C60.8133 35.9107 60.9355 34.6757 60.7775 33.4562C60.6195 32.2368 60.1845 31.0577 59.4983 29.9892C58.8121 28.9206 57.8888 27.9844 56.7833 27.2361C55.6777 26.4878 54.4125 25.9428 53.0628 25.6335C51.7131 25.3241 50.3065 25.2567 48.9266 25.4353C47.5467 25.6139 46.2217 26.0348 45.0303 26.673C43.839 27.3112 42.8056 28.1537 41.9917 29.1503C43.4745 29.3591 44.9018 29.8033 46.2042 30.4612C46.8425 29.9446 47.5962 29.5508 48.4173 29.305C49.2383 29.0593 50.1086 28.967 50.9725 29.0339C51.8364 29.1009 52.6749 29.3258 53.4344 29.6941C54.194 30.0624 54.8579 30.5661 55.3837 31.173C55.9095 31.7799 56.2857 32.4766 56.4882 33.2187C56.6907 33.9607 56.7151 34.7318 56.5598 35.4827C56.4045 36.2335 56.0729 36.9476 55.5862 37.5792C55.0995 38.2109 54.4685 38.7463 53.7333 39.1512C53.4037 39.3319 53.1381 39.5902 52.9664 39.8967C52.7947 40.2033 52.7238 40.546 52.7618 40.8861C52.7997 41.2262 52.9449 41.5503 53.181 41.8217C53.4171 42.093 53.7347 42.3009 54.0979 42.4218C56.0732 43.0864 57.7738 44.2615 58.9759 45.7926C60.1781 47.3237 60.8256 49.139 60.8333 51C60.8333 51.1045 60.8167 51.2035 60.8125 51.3062C62.1669 50.2427 63.414 49.0778 64.5396 47.8247Z" fill="white"/>
<path d="M54.4875 55.1873C54.2612 53.3059 53.5683 51.4911 52.4577 49.8711C51.3472 48.2511 49.8461 46.8653 48.0604 45.8117C49.5922 44.1756 50.4257 42.1198 50.4167 40C50.4157 38.5313 50.0138 37.0843 49.2446 35.7808C48.4755 34.4774 47.3617 33.3556 45.997 32.5101C44.6324 31.6645 43.0568 31.1199 41.403 30.9221C39.7493 30.7243 38.0657 30.879 36.4941 31.3734C34.9224 31.8677 33.5088 32.6871 32.3722 33.7626C31.2356 34.8381 30.4093 36.1382 29.9629 37.5534C29.5165 38.9686 29.463 40.4574 29.807 41.8946C30.151 43.3318 30.8824 44.6752 31.9396 45.8117C30.1539 46.8653 28.6528 48.2511 27.5423 49.8711C26.4318 51.4911 25.7389 53.3059 25.5125 55.1873C26.835 55.792 28.2052 56.3122 29.6125 56.7438C29.6083 56.6613 29.5833 56.5843 29.5833 56.5C29.5921 54.6395 30.24 52.8247 31.4421 51.2941C32.6441 49.7635 34.3441 48.5886 36.3188 47.9237C36.6825 47.8029 37.0006 47.5951 37.2371 47.3235C37.4736 47.052 37.6191 46.7276 37.657 46.3872C37.6949 46.0467 37.6239 45.7036 37.4518 45.3968C37.2797 45.0901 37.0135 44.8318 36.6833 44.6512C35.7824 44.1622 35.0394 43.4775 34.5257 42.663C34.012 41.8485 33.7449 40.9315 33.75 40C33.75 38.5413 34.4085 37.1424 35.5806 36.1109C36.7527 35.0795 38.3424 34.5 40 34.5C41.6576 34.5 43.2473 35.0795 44.4194 36.1109C45.5915 37.1424 46.25 38.5413 46.25 40C46.2551 40.9315 45.988 41.8485 45.4743 42.663C44.9606 43.4775 44.2176 44.1622 43.3167 44.6512C42.9865 44.8318 42.7203 45.0901 42.5482 45.3968C42.3762 45.7036 42.3051 46.0467 42.343 46.3872C42.3809 46.7276 42.5264 47.052 42.7629 47.3235C42.9994 47.5951 43.3175 47.8029 43.6813 47.9237C45.6559 48.5886 47.3559 49.7635 48.558 51.2941C49.76 52.8247 50.408 54.6395 50.4167 56.5C50.4167 56.5843 50.3917 56.6613 50.3896 56.7438C51.7962 56.3121 53.1657 55.7919 54.4875 55.1873Z" fill="white"/>
</svg>
