<svg width="80" height="80" viewBox="0 0 80 80" fill="none" xmlns="http://www.w3.org/2000/svg">
<circle cx="40" cy="40" r="40" fill="#FFA03C"/>
<g clip-path="url(#clip0_383_43)">
<path d="M55.3386 25.7217L49.2598 19.339C49.0551 19.124 48.7716 19 48.4724 19H25.4488C24.8346 19 24.3386 19.5209 24.3386 20.1657V59.8343C24.3386 60.4791 24.8346 61 25.4488 61H54.5512C55.1653 61 55.6614 60.4791 55.6614 59.8343V26.5484C55.6614 26.2343 55.5433 25.9366 55.3386 25.7217ZM49.5827 22.985L51.8661 25.3827H49.5827V22.985ZM26.559 58.6685V21.3315H47.3622V26.5402C47.3622 27.185 47.8582 27.7059 48.4724 27.7059H53.4331V58.6685H26.559Z" fill="white"/>
<path d="M50.3543 30.4177H38.4724C37.8582 30.4177 37.3622 30.9386 37.3622 31.5835C37.3622 32.2284 37.8582 32.7492 38.4724 32.7492H50.3543C50.9685 32.7492 51.4645 32.2284 51.4645 31.5835C51.4645 30.9386 50.9685 30.4177 50.3543 30.4177Z" fill="white"/>
<path d="M50.3543 41.4303H38.4724C37.8582 41.4303 37.3622 41.9512 37.3622 42.596C37.3622 43.2409 37.8582 43.7618 38.4724 43.7618H50.3543C50.9685 43.7618 51.4645 43.2409 51.4645 42.596C51.4645 41.9512 50.9685 41.4303 50.3543 41.4303Z" fill="white"/>
<path d="M50.3543 52.4512H38.4724C37.8582 52.4512 37.3622 52.972 37.3622 53.6169C37.3622 54.2618 37.8582 54.7827 38.4724 54.7827H50.3543C50.9685 54.7827 51.4645 54.2618 51.4645 53.6169C51.4645 52.972 50.9685 52.4512 50.3543 52.4512Z" fill="white"/>
<path d="M34.8898 27.6646H29.6457C29.0315 27.6646 28.5355 28.1854 28.5355 28.8303V34.3366C28.5355 34.9815 29.0315 35.5023 29.6457 35.5023H34.8898C35.504 35.5023 36 34.9815 36 34.3366V28.8303C36 28.1854 35.504 27.6646 34.8898 27.6646ZM33.7796 33.1708H30.7559V29.996H33.7796V33.1708Z" fill="white"/>
<path d="M34.8898 38.6854H29.6457C29.0315 38.6854 28.5355 39.2063 28.5355 39.8512V45.3575C28.5355 46.0024 29.0315 46.5232 29.6457 46.5232H34.8898C35.504 46.5232 36 46.0024 36 45.3575V39.8512C36 39.2063 35.504 38.6854 34.8898 38.6854ZM33.7796 44.1917H30.7559V41.0169H33.7796V44.1917Z" fill="white"/>
<path d="M36.7953 50.2272C36.3543 49.7724 35.6535 49.7724 35.2205 50.2272L31.8425 53.774L30.4409 52.3023C30.0079 51.8476 29.3071 51.8476 28.8661 52.3023C28.4331 52.7571 28.4331 53.4929 28.8661 53.9559L31.0551 56.2543C31.2756 56.4858 31.559 56.5933 31.8425 56.5933C32.126 56.5933 32.4094 56.4775 32.6299 56.2543L36.7953 51.8807C37.2283 51.426 37.2283 50.6901 36.7953 50.2272Z" fill="white"/>
</g>
<defs>
<clipPath id="clip0_383_43">
<rect width="40" height="42" fill="white" transform="translate(20 19)"/>
</clipPath>
</defs>
</svg>
