<svg width="80" height="80" viewBox="0 0 80 80" fill="none" xmlns="http://www.w3.org/2000/svg">
<circle cx="40" cy="40" r="40" fill="#FFA03C"/>
<path d="M55.5384 50.4192L41.0769 59.0616C40.3076 59.5462 39.3076 59.5462 38.5384 59.0616L24.1538 50.4192C23.5384 50.0962 23.5384 49.2885 24.1538 48.9654L27.5384 46.9462C27.7692 46.7846 28.0769 46.7846 28.3076 46.9462L37.0769 52.1962C37.923 52.6808 38.8461 52.9231 39.8461 52.9231C40.8461 52.9231 41.7692 52.6808 42.6153 52.1962L51.3846 46.9462C51.6153 46.7846 51.923 46.7846 52.1538 46.9462L55.5384 48.9654C56.1538 49.2885 56.1538 50.0962 55.5384 50.4192Z" fill="white"/>
<path d="M55.5384 40.7269L41.0769 49.3692C40.3076 49.8538 39.3076 49.8538 38.5384 49.3692L24.1538 40.7269C23.5384 40.4038 23.5384 39.5962 24.1538 39.2731L27.5384 37.2538C27.7692 37.0923 28.0769 37.0923 28.3076 37.2538L37.0769 42.5038C37.923 42.9885 38.8461 43.2308 39.8461 43.2308C40.8461 43.2308 41.7692 42.9885 42.6153 42.5038L51.3846 37.2538C51.6153 37.0923 51.923 37.0923 52.1538 37.2538L55.5384 39.2731C56.1538 39.5962 56.1538 40.4038 55.5384 40.7269Z" fill="white"/>
<path d="M38.6924 39.6769L24.2308 31.0346C23.6154 30.7115 23.6154 29.9039 24.2308 29.5808L38.6924 20.9385C39.4616 20.4539 40.4616 20.4539 41.2308 20.9385L55.6924 29.5808C56.3078 29.9039 56.3078 30.7115 55.6924 31.0346L41.2308 39.6769C40.4616 40.0808 39.4616 40.0808 38.6924 39.6769Z" fill="white"/>
</svg>
