<svg width="80" height="80" viewBox="0 0 80 80" fill="none" xmlns="http://www.w3.org/2000/svg">
<circle cx="40" cy="40" r="40" fill="#FFA03C"/>
<g clip-path="url(#clip0_386_70)">
<path d="M26.7966 47.5119L28.6295 60.0924H51.3706L53.2035 47.5119H26.7966ZM40.0001 54.8885C39.057 54.8885 38.2927 54.386 38.2927 53.7663C38.2927 53.1467 39.057 52.6441 40.0001 52.6441C40.9431 52.6441 41.7075 53.1465 41.7075 53.7663C41.7075 54.3862 40.9431 54.8885 40.0001 54.8885ZM57.2783 57.8097H53.0081L54.6966 46.2204H25.3035L26.992 57.8097H22.7218C20.2858 57.8097 18.6449 55.3167 19.6082 53.0791L25.6472 39.0535C26.8201 36.3293 29.5015 34.5645 32.4675 34.5645H34.8441L38.5986 40.1526L39.364 36.5016L38.0828 34.5645H41.9368L40.6555 36.5016L41.4192 40.127L45.1565 34.5645H47.5332C50.4991 34.5645 53.1805 36.3293 54.3534 39.0535L60.3922 53.0791C61.3553 55.3166 59.7145 57.8097 57.2783 57.8097ZM40.0001 19.9078C43.6908 19.9078 46.6828 22.8998 46.6828 26.5905C46.6828 30.2813 43.6908 33.2731 40.0001 33.2731C36.3093 33.2731 33.3173 30.2811 33.3173 26.5904C33.3173 22.8996 36.3093 19.9078 40.0001 19.9078Z" fill="white"/>
</g>
<defs>
<clipPath id="clip0_386_70">
<rect width="42" height="42" fill="white" transform="translate(19 19)"/>
</clipPath>
</defs>
</svg>
