<svg width="80" height="80" viewBox="0 0 80 80" fill="none" xmlns="http://www.w3.org/2000/svg">
<circle cx="40" cy="40" r="40" fill="#FFA03C"/>
<g clip-path="url(#clip0_386_69)">
<path d="M32.8071 61C32.7841 61 32.7614 60.9986 32.7387 60.9957C32.7382 60.9959 32.7378 60.9954 32.7371 60.9954C32.7364 60.9952 32.7359 60.9949 32.7355 60.9952C32.7348 60.9952 32.7341 60.9952 32.7341 60.9949C32.7334 60.9949 32.7329 60.9947 32.7325 60.9947C32.7086 60.9916 32.6852 60.9868 32.662 60.9802C32.6618 60.9802 32.6618 60.98 32.6609 60.98C32.5638 60.9533 32.4734 60.8998 32.3995 60.8219C32.3993 60.8215 32.399 60.821 32.3983 60.8205C32.3979 60.82 32.3974 60.8195 32.3972 60.819C32.3967 60.8186 32.3963 60.8181 32.3958 60.8176L24.5414 52.35C24.5412 52.3495 24.5407 52.3493 24.5403 52.3488C24.5403 52.3488 24.5403 52.3485 24.54 52.3485C24.5396 52.3478 24.5391 52.3478 24.5389 52.3471C24.47 52.2719 24.4225 52.1813 24.398 52.0847C24.398 52.0845 24.398 52.0845 24.398 52.0845C24.398 52.084 24.3978 52.0835 24.3978 52.083C24.3978 52.083 24.3978 52.0823 24.3975 52.0818C24.3904 52.0531 24.3854 52.024 24.3824 51.9943V51.9941C24.3824 51.9936 24.3824 51.9931 24.3824 51.9924C24.3824 51.9922 24.3824 51.9919 24.3824 51.9914C24.3824 51.991 24.3824 51.9905 24.3824 51.99C24.3824 51.9898 24.3824 51.9898 24.3824 51.9898C24.3803 51.9683 24.3794 51.9469 24.3794 51.9252V19.6024C24.3794 19.2696 24.6362 19 24.9531 19H55.0483C55.3652 19 55.622 19.2696 55.622 19.6024V60.3976C55.622 60.7304 55.3652 61 55.0483 61H32.8112C32.8098 61 32.8084 61 32.8071 61ZM33.3805 59.7952H54.4737V20.2048H25.5261V51.3274H32.8071C33.124 51.3274 33.3808 51.597 33.3808 51.9298L33.3805 59.7952ZM26.3121 52.5322L32.2334 58.9155V52.5322H26.3121ZM51.2279 48.7916H28.8797C28.5628 48.7916 28.306 48.5219 28.306 48.1892C28.306 47.8564 28.5628 47.5868 28.8797 47.5868H51.2279C51.5448 47.5868 51.8016 47.8564 51.8016 48.1892C51.8016 48.5219 51.5448 48.7916 51.2279 48.7916ZM51.2279 45.6994H28.8797C28.5628 45.6994 28.306 45.4298 28.306 45.097C28.306 44.7643 28.5628 44.4946 28.8797 44.4946H51.2279C51.5448 44.4946 51.8016 44.7643 51.8016 45.097C51.8016 45.4298 51.5448 45.6994 51.2279 45.6994ZM46.8198 41.3936C46.6844 41.3936 46.5522 41.3432 46.4478 41.2497C46.3234 41.1384 46.25 40.9765 46.2463 40.8049L46.2248 39.8076L42.2816 39.1616C42.1219 39.1356 41.9801 39.0397 41.891 38.898C41.802 38.7561 41.7742 38.5816 41.8144 38.4171L43.3205 32.24C42.3998 31.3159 41.7855 30.0482 41.6749 28.6136C41.4353 25.5065 43.6477 22.7745 46.6068 22.5228C49.5642 22.2702 52.1678 24.5945 52.4074 27.7011C52.5417 29.4415 51.9065 31.0643 50.8017 32.1995L52.362 39.9464C52.395 40.1102 52.3617 40.2808 52.27 40.4175C52.1784 40.5543 52.0366 40.6449 51.8789 40.6678L46.8983 41.3873C46.8719 41.3916 46.8457 41.3936 46.8198 41.3936ZM47.2416 33.8071L47.3786 40.1023L51.1115 39.563L49.7929 33.0158C49.1082 33.445 48.3222 33.7204 47.475 33.7927C47.3972 33.7992 47.3191 33.8037 47.2416 33.8071ZM43.0823 38.0737L46.1158 38.5708L46.1903 38.2334L46.0921 33.7233C45.4558 33.6035 44.8545 33.3652 44.3123 33.0291L43.0823 38.0737ZM47.0438 23.7092C46.9295 23.7092 46.8145 23.7143 46.6991 23.7241C44.3708 23.922 42.6297 26.072 42.8181 28.5167C43.0065 30.9614 45.0569 32.792 47.3827 32.5917C49.711 32.3939 51.4521 30.2436 51.2637 27.7989C51.0842 25.4756 49.2261 23.7092 47.0438 23.7092ZM38.0982 33.2679H28.8797C28.5628 33.2679 28.306 32.9982 28.306 32.6655C28.306 32.3327 28.5628 32.0631 28.8797 32.0631H38.0984C38.4153 32.0631 38.6721 32.3327 38.6721 32.6655C38.6721 32.9982 38.4151 33.2679 38.0982 33.2679ZM38.0982 29.6215H28.8797C28.5628 29.6215 28.306 29.3519 28.306 29.0191C28.306 28.6864 28.5628 28.4167 28.8797 28.4167H38.0984C38.4153 28.4167 38.6721 28.6864 38.6721 29.0191C38.6721 29.3519 38.4151 29.6215 38.0982 29.6215ZM38.0982 25.7537H28.8797C28.5628 25.7537 28.306 25.4841 28.306 25.1513C28.306 24.8186 28.5628 24.5489 28.8797 24.5489H38.0984C38.4153 24.5489 38.6721 24.8186 38.6721 25.1513C38.6721 25.4841 38.4151 25.7537 38.0982 25.7537Z" fill="white"/>
</g>
<defs>
<clipPath id="clip0_386_69">
<rect width="40" height="42" fill="white" transform="translate(20 19)"/>
</clipPath>
</defs>
</svg>
